<svg width="1080" height="1080" viewBox="0 0 1080 1080" fill="none" xmlns="http://www.w3.org/2000/svg">
<rect width="1080" height="1080" fill="#007B80"/>
<path d="M547.02 359.137V385.929C539.272 375.51 532.436 366.31 525.6 357.11C524.677 357.485 523.754 357.861 522.842 358.237C522.842 362.587 522.444 366.982 522.945 371.274C523.651 377.343 524.825 383.378 526.181 389.345C527.206 393.831 526.42 396.734 521.566 398.146C510.845 401.266 504.419 408.519 499.314 418.517C495.566 425.861 488.992 432.123 482.634 437.68C475.137 444.227 474.18 445.878 478.874 454.759C482.326 461.307 487.305 465.952 494.597 467.865C513.021 472.67 519.447 480.47 521.168 499.781C523.116 521.643 518.228 542.663 513.226 563.648C512.873 565.139 510.799 566.221 509.523 567.485C508.965 565.549 507.723 563.522 507.951 561.689C509.614 548.891 512.679 536.172 513.089 523.351C513.397 513.627 511.244 503.573 508.669 494.065C506.561 486.277 500.659 481.677 491.977 480.037C474.977 476.826 461.772 458.084 464.233 440.868C464.734 437.361 467.697 433.273 470.728 431.224C480.219 424.802 486.952 416.752 492.216 406.424C495.498 399.98 502.288 395.083 508.167 390.324C511.004 388.024 512.349 386.339 511.939 382.661C511.13 375.465 510.4 368.2 510.457 360.97C510.571 347.067 521.35 341.351 533.37 348.342C535.057 349.321 538.144 350.232 539.318 349.39C545.767 344.778 551.726 347.056 557.024 350.699C562.003 354.126 566.207 358.692 570.616 362.894C572.417 364.613 574.228 366.492 575.379 368.656C584.3 385.337 598.007 390.552 616.408 387.899C629.693 385.986 643.377 386.1 654.713 377.799C659.522 374.28 663.714 369.635 667.36 364.875C672.465 358.226 676.817 351.007 681.466 344.015C693.179 326.412 684.907 307.818 663.692 304.539C657.436 303.571 651.022 303.571 644.687 303.15C634.695 302.489 626.719 298.037 619.416 291.251C612.158 284.51 603.852 278.908 596.264 272.486C594.053 270.619 592.162 267.886 591.148 265.176C586.852 253.733 583.092 242.096 578.774 230.652C577.646 227.658 575.254 225.153 573.431 222.42C572.77 222.511 572.109 222.602 571.448 222.693C570.218 227.362 569.044 232.041 567.734 236.687C565.592 244.316 563.814 252.093 560.932 259.437C559.826 262.261 556.374 264.834 553.4 265.893C552.25 266.303 548.775 262.534 547.59 260.086C541.973 248.461 536.993 236.516 531.308 224.914C529.2 220.598 525.805 216.898 523.002 212.924C522.204 213.072 521.418 213.208 520.621 213.356C519.937 217.581 519.253 221.794 518.57 226.018C515.847 242.767 513.192 259.528 510.321 276.255C509.911 278.635 509.102 281.47 507.461 283.041C496.238 293.858 491.43 308.194 485.881 322.028C471.035 358.966 444.488 385.052 410.147 403.691C397.717 410.432 383.976 412.482 369.802 409.635C345.716 404.785 329.069 379.142 335.393 355.402C336.954 349.549 340.383 343.514 344.599 339.176C390.413 292.128 436.558 245.409 482.611 198.6C496.158 184.833 509.671 171.022 523.287 157.335C540.389 140.142 554.414 140.005 571.254 157.108C630.844 217.66 690.296 278.361 749.908 338.891C761.609 350.779 762.373 364.739 757.929 379.347C752.984 395.596 741.807 405.912 724.944 409.396C715.499 411.343 715.453 411.15 715.453 421.101C715.453 459.269 715.476 497.447 715.453 535.614C715.442 556.93 704.299 567.895 683.038 567.724C673.957 567.644 664.854 567.439 655.784 567.827C650.076 568.077 647.342 565.925 645.405 560.528C630.593 519.127 615.097 477.954 600.57 436.45C590.76 408.428 576.256 383.811 553.697 364.238C551.931 362.712 549.982 361.38 547.043 359.137H547.02Z" fill="#FBFBFB"/>
<path d="M513.591 456.445C524.004 462.4 534.43 468.355 544.844 474.31C544.411 475.084 543.966 475.858 543.533 476.633C533.131 470.609 522.717 464.586 512.314 458.563C512.747 457.857 513.169 457.151 513.602 456.445H513.591Z" fill="#FBFBFB"/>
<path d="M557.536 437.429C545.618 435.801 533.7 434.173 521.782 432.533C521.896 431.725 521.999 430.916 522.113 430.119C534.031 431.736 545.948 433.364 557.866 434.981L557.536 437.418V437.429Z" fill="#FBFBFB"/>
<path d="M555.12 455.796C544.718 452.585 534.315 449.374 523.913 446.152C524.152 445.377 524.403 444.603 524.642 443.829C535.022 447.119 545.39 450.41 555.77 453.701C555.553 454.395 555.337 455.09 555.109 455.784L555.12 455.796Z" fill="#FBFBFB"/>
<path d="M417.154 588.561C408.996 588.185 401.579 586.603 394.629 583.289C390.618 581.376 386.915 581.365 382.847 583.084C375.35 586.25 367.534 588.117 359.297 587.866C350.558 587.593 342.992 584.815 338.868 576.617C334.39 567.747 334.173 558.353 340.28 550.326C350.444 536.969 361.917 524.752 375.863 515.142C383.725 509.733 391.188 509.585 399.061 514.868C413.69 524.695 426.223 536.821 436.819 550.792C442.915 558.831 442.288 567.895 437.799 576.674C433.413 585.248 425.904 588.459 417.143 588.561H417.154Z" fill="#F77B17"/>
<path d="M410.341 451.355C415.889 451.275 419.809 454.258 422.908 458.38C430.53 468.526 430.154 485.981 422.259 495.967C415.411 504.62 404.439 504.256 398.195 495.158C390.664 484.182 390.527 469.528 398.001 458.688C400.952 454.406 404.826 451.435 410.352 451.355H410.341Z" fill="#F77B17"/>
<path d="M385.012 476.94C384.978 485.059 382.882 492.403 376.82 498.187C371.385 503.379 363.592 503.539 358.02 498.483C349.988 491.196 348.632 481.757 349.76 471.657C350.341 466.374 352.244 461.546 355.639 457.378C362.361 449.123 373.129 449.442 379.384 458.05C383.485 463.698 385.138 470.04 385.024 476.94H385.012Z" fill="#F77B17"/>
<path d="M424.366 516.963C424.423 508.241 427.556 500.795 433.937 494.839C440.819 488.406 450.8 490.217 455.152 498.563C461.225 510.211 458.855 524.865 449.421 533.997C442.289 540.897 432.011 539.224 427.443 530.433C425.449 526.596 424.4 521.985 424.366 516.963Z" fill="#F77B17"/>
<path d="M351.287 518.262C351.424 525.777 349.715 531.276 345.898 536.013C341.466 541.501 334.47 542.685 328.614 538.791C318.929 532.358 315.739 522.85 316.411 511.726C316.628 508.105 317.323 504.552 318.975 501.227C323.874 491.367 334.049 489.42 342.206 496.832C347.618 501.751 351.276 510.974 351.287 518.25V518.262Z" fill="#F77B17"/>
<path d="M641.462 851.827C641.462 839.04 641.576 826.241 641.394 813.466C641.337 809.856 642.237 808.444 646.248 808.365C657.698 808.137 669.149 807.533 680.588 806.862C684.109 806.657 685.351 807.602 684.906 811.143C682.89 827.243 680.987 843.366 679.153 859.49C678.082 868.895 676.361 878.254 676.623 887.785C676.749 892.282 677.409 896.666 679.426 900.731C683.778 909.499 694.58 910.478 700.55 902.599C705.199 896.461 706.441 889.174 706.68 881.807C707.409 859.831 708.013 837.855 708.366 815.88C708.434 811.496 709.802 810.198 714.188 810.243C725.947 810.369 737.705 810.152 749.452 809.89C752.859 809.811 753.679 810.733 753.086 814.126C749.406 835.054 745.829 855.994 742.502 876.979C741.385 884.005 742.251 891.041 745.168 897.668C747.788 903.601 752.426 907.176 759.102 907.153C765.46 907.13 769.664 903.578 772.273 897.987C775.555 890.962 775.863 883.526 775.703 876.034C775.27 855.63 773.276 835.305 772.125 814.935C771.658 806.736 771.784 806.862 779.93 807.977C790.105 809.378 800.302 810.642 810.522 811.712C813.94 812.065 815.433 813.204 815.421 816.756C815.342 835.145 816.003 853.557 815.353 871.935C814.681 891.03 808.574 908.371 793.454 921.489C780.477 932.738 765.073 935.79 748.233 933.217C737.215 931.531 727.314 927.626 719.669 919.348C717.572 917.082 716.444 918.904 715.123 920.202C706.019 929.174 695.104 934.071 682.069 934.014C664.033 933.934 649.973 923.538 644.801 906.618C642.51 899.137 641.223 891.542 641.28 883.72C641.36 873.085 641.303 862.45 641.303 851.815C641.36 851.815 641.417 851.815 641.474 851.815L641.462 851.827Z" fill="#FBFBFB"/>
<path d="M735.129 768.272C727.154 777.712 717.503 782.346 705.494 782.027C690.967 781.651 680.61 774.262 673.193 762.613C663.451 747.322 660.831 730.276 661.195 712.616C661.457 700.022 664.591 688.283 671.689 677.58C683.208 660.193 707.158 654.443 725.194 664.941C726.048 665.442 726.812 666.546 727.86 666.091C729.204 665.51 728.749 664.087 728.692 662.994C727.963 650.503 727.325 638.012 726.368 625.533C726.071 621.741 727.211 620.614 731.107 620.397C741.521 619.839 751.912 618.826 762.292 617.881C767.898 617.368 768.16 617.414 768.205 622.845C768.456 652.609 768.638 682.385 768.877 712.16C769.048 733.441 769.208 754.734 769.55 776.015C769.607 779.807 769.06 782.039 764.559 782.801C756.333 784.213 748.221 786.286 740.085 788.176C737.374 788.802 736.804 787.595 736.645 785.284C736.235 779.602 735.642 773.931 735.118 768.25L735.129 768.272ZM732.383 719.357C732.235 716.35 732.11 711.602 731.711 706.877C731.506 704.463 730.788 702.083 730.31 699.692C728.635 691.357 723.815 685.846 718.107 685.755C712.524 685.664 707.636 690.72 705.289 698.736C703.899 703.472 703.147 708.3 702.885 713.174C702.258 724.845 702.224 736.504 706.918 747.549C708.946 752.32 712.342 755.952 718.13 755.827C723.929 755.702 726.892 751.853 728.863 747.014C732.269 738.668 732.144 729.866 732.383 719.357Z" fill="#FBFBFB"/>
<path d="M617.536 766.61C613.423 771.746 609.515 775.731 604.239 778.145C590.202 784.555 573.727 781.595 562.493 770.618C553.389 761.725 548.843 750.59 546.018 738.714C543.42 727.851 542.873 716.738 544.217 705.727C546.28 688.864 552.763 674.016 568.965 665.34C581.68 658.531 594.805 658.849 607.612 665.75C608.58 666.273 609.446 667.606 610.677 666.683C611.702 665.909 611.212 664.554 611.155 663.461C610.46 651.277 609.879 639.083 608.911 626.911C608.615 623.13 609.72 622.048 613.594 621.844C624.144 621.263 634.695 620.363 645.2 619.247C649.154 618.826 650.806 619.498 650.828 623.734C651.125 674.836 651.546 725.938 652.013 777.04C652.036 779.932 651.239 781.276 648.048 781.891C639.56 783.508 631.151 785.523 622.743 787.47C620.213 788.062 619.313 787.254 619.143 784.806C618.744 779.044 618.14 773.305 617.536 766.633V766.61ZM614.471 721.338C614.471 717.364 614.733 713.367 614.414 709.416C613.913 703.177 612.808 696.994 609.264 691.585C604.821 684.822 597.232 684.492 592.151 690.777C590.989 692.211 590.077 693.863 589.291 695.525C585.93 702.664 585.235 710.35 585.109 718.002C584.939 727.931 585.155 737.928 589.371 747.276C591.467 751.945 594.76 755.611 600.536 755.531C606.336 755.44 609.355 751.705 611.326 746.912C614.722 738.668 614.722 729.992 614.471 721.338Z" fill="#FBFBFB"/>
<path d="M232.803 766.873C232.883 794.075 234.706 821.129 242.534 847.511C244.778 855.083 247.809 862.382 252.902 868.713C262.268 880.361 276.453 880.623 285.875 868.997C293.281 859.854 297.155 849.128 296.962 837.708C296.813 828.826 300.402 826.219 309.54 826.071C333.353 825.672 357.166 824.579 380.956 823.27C389.262 822.814 391.21 824.852 389.467 832.72C380.25 874.292 358.75 907.244 315.887 924.495C261.527 946.357 203.613 929.402 170.879 883.242C149.8 853.512 140.742 820.173 137.86 785.216C135.273 753.778 136.561 722.625 150.062 692.838C165.729 658.303 192.868 635.94 230.912 626.216C272.146 615.673 313.084 618.018 352.073 635.189C380.364 647.646 401.636 666.82 410.614 696.061C410.694 696.323 410.899 696.573 410.944 696.835C415.684 723.502 418.635 720.598 392.224 724.253C367.5 727.669 342.833 731.461 318.142 735.071C315.886 735.401 313.209 737.006 311.489 734.82C309.859 732.748 312.07 730.71 312.81 728.637C314.405 724.14 316.319 719.608 316.912 714.962C319.088 697.564 311.716 684.652 297.132 679.3C279.666 672.889 259.966 677.979 249.142 691.779C237.122 707.117 234.626 725.199 232.906 743.36C232.165 751.137 232.781 759.028 232.781 766.873H232.803Z" fill="#FBFBFB"/>
<path d="M534.612 718.787C534.612 737.324 534.543 755.861 534.669 774.398C534.692 777.792 533.621 779.283 530.054 779.568C520.689 780.285 511.323 781.162 501.98 782.221C498.277 782.642 496.739 781.469 497.195 777.849C497.263 777.279 497.275 776.687 497.149 776.129C496.921 775.07 497.73 773.59 496.42 773.021C495.133 772.463 494.358 773.772 493.537 774.524C488.16 779.408 481.984 782.642 474.783 784.373C453.83 789.406 433.185 778.031 426.975 757.854C424.799 750.794 423.5 743.632 423.557 736.243C423.74 712.388 423.899 688.522 423.99 664.668C424.002 661.696 424.457 659.828 428.24 659.715C439.839 659.396 451.449 658.849 463.036 658.177C466.591 657.972 467.674 659.031 467.366 662.516C465.327 685.414 463.515 708.335 461.475 731.233C461.008 736.436 460.906 741.526 462.034 746.661C463.333 752.559 467.081 756.727 472.322 757.752C479.489 759.163 484.89 757.239 488.536 751.888C491.532 747.492 493.036 742.494 493.731 737.381C494.62 730.845 495.11 724.276 494.791 717.614C493.936 700.102 493.515 682.567 492.808 665.055C492.694 662.356 493.526 661.07 496.374 660.887C508.543 660.068 520.7 659.191 532.857 658.223C536.309 657.95 536.196 660.011 536.196 662.311" fill="#FBFBFB"/>
<path d="M520.712 870.067C520.416 854.286 523.503 839.347 534.02 826.924C549.059 809.161 569.135 804.504 591.558 807.635C603.932 809.366 614.79 814.296 622.902 824.157C633.578 837.138 634.706 857.622 625.055 870.807C620.031 877.673 612.682 881.249 604.57 883.264C591.957 886.384 579.207 888.058 566.252 885.279C564.088 884.812 562.823 885.222 563.153 887.796C563.883 893.534 565.045 899.148 568.326 904.078C570.218 906.925 572.679 909.088 576.37 909.521C582.261 910.216 585.907 907.654 586.203 901.881C586.351 898.806 587.593 898.146 590.373 897.77C599.089 896.575 607.771 895.106 616.442 893.637C621.523 892.783 621.968 893.125 621.489 898.294C619.564 919.086 602.428 934.97 581.098 935.459C561.592 935.903 544.502 930.7 532.675 914.292C525.725 904.659 522.785 893.591 521.373 882.091C520.883 878.106 520.928 874.064 520.723 870.044L520.712 870.067ZM577.122 862.017C580.426 861.983 582.899 861.835 585.337 861.152C593.461 858.874 597.243 854.445 597.38 846.805C597.505 839.7 593.814 834.177 587.49 832.048C581.212 829.93 573.955 832.64 569.374 838.629C566.104 842.899 564.817 847.921 563.598 852.931C562.367 857.998 563.153 859.091 568.395 860.48C571.516 861.311 574.627 862.199 577.122 862.017Z" fill="#FBFBFB"/>
<path d="M831.931 722.693C831.794 706.9 834.893 691.938 845.489 679.561C860.62 661.878 880.707 657.278 903.153 660.512C915.401 662.277 926.1 667.184 934.144 676.885C944.923 689.866 946.073 710.248 936.434 723.547C931.432 730.447 924.095 734.045 915.982 736.061C903.37 739.203 890.609 740.854 877.643 738.11C875.466 737.655 874.168 738.087 874.487 740.638C875.216 746.525 876.435 752.286 879.899 757.285C881.653 759.824 883.966 761.794 887.282 762.283C893.343 763.194 897.103 760.587 897.49 754.62C897.661 751.888 898.55 750.999 901.296 750.624C910.308 749.383 919.298 747.925 928.242 746.331C931.877 745.682 933.347 746.365 932.891 750.339C930.897 767.635 920.916 783.69 898.402 787.573C879.648 790.806 856.416 785.443 843.598 766.679C837.263 757.387 834.244 746.946 832.797 736.038C832.216 731.631 832.205 727.145 831.931 722.704V722.693ZM889.298 714.802C891.942 714.802 894.528 714.563 897.103 713.823C904.817 711.614 908.542 707.139 908.702 699.67C908.85 692.587 905.204 687.076 898.937 684.901C892.83 682.784 885.425 685.266 881.061 690.891C877.141 695.958 875.683 701.913 874.532 707.982C874.088 710.35 874.92 711.728 877.301 712.491C881.209 713.743 885.128 714.87 889.298 714.791V714.802Z" fill="#FBFBFB"/>
<path d="M410.853 872.868C410.853 853.625 410.91 834.37 410.784 815.127C410.762 812.178 411.616 810.721 414.67 810.117C424.012 808.261 433.31 806.246 442.607 804.162C445.763 803.456 446.743 804.606 446.994 807.578C447.666 815.298 447.78 815.287 454.627 811.529C469.678 803.274 491.782 804.39 503.757 814.194C513.955 822.54 516.575 833.938 516.826 846.224C516.86 848.137 515.572 848.66 514.091 849.002C503.541 851.439 492.979 853.864 482.417 856.267C479.967 856.824 479.511 855.435 480.081 853.568C480.89 850.938 481.437 848.296 481.471 845.54C481.608 835.042 473.211 829.19 463.036 832.765C454.57 835.737 448.782 843.89 449.124 853.215C450.002 877.616 450.97 902.017 452.223 926.407C452.451 930.779 451.255 932.305 446.88 932.51C435.737 933.045 424.594 933.797 413.473 934.696C409.998 934.981 409.269 933.751 409.292 930.62C409.417 911.377 409.349 892.122 409.349 872.879C409.85 872.879 410.351 872.879 410.853 872.879V872.868Z" fill="#FBFBFB"/>
<path d="M822.68 695.013C821.745 720.894 820.709 746.775 819.968 772.657C819.843 777.234 818.635 779.227 813.656 779.705C804.757 780.547 795.927 782.13 787.108 783.633C783.029 784.328 783.246 781.982 783.246 779.352C783.36 750.419 783.44 721.475 783.531 692.542C783.599 669.393 783.793 646.245 783.656 623.085C783.633 618.656 785.057 617.005 789.512 616.515C800.006 615.365 810.466 613.851 820.891 612.165C824.514 611.585 825.927 612.063 825.756 616.071C824.674 642.385 823.796 668.699 822.839 695.013H822.657H822.68Z" fill="#FBFBFB"/>
<path d="M423.579 813.033L421.267 880.861L440.545 887.648" fill="#FBFBFB"/>
</svg>
